<?xml version="1.0" encoding="UTF-8" standalone="no"?>
<!-- Generator: Gravitdesign.com -->
<svg xmlns="http://www.w3.org/2000/svg" xmlns:xlink="http://www.w3.org/1999/xlink" style="isolation:isolate" viewBox="178 251.295 598 296.8" width="598pt" height="296.8pt"><path d=" M 275.096 384.219 L 222.52 443.579 L 277.216 443.579 L 277.216 473.895 L 182.876 473.895 L 182.876 445.275 L 233.756 385.703 L 183.724 385.703 L 183.724 355.599 L 275.096 355.599 L 275.096 384.219 L 275.096 384.219 Z  M 290.996 322.315 L 290.996 322.315 Q 290.996 314.047 296.932 308.641 L 296.932 308.641 L 296.932 308.641 Q 302.868 303.235 312.62 303.235 L 312.62 303.235 L 312.62 303.235 Q 322.372 303.235 328.308 308.641 L 328.308 308.641 L 328.308 308.641 Q 334.244 314.047 334.244 322.315 L 334.244 322.315 L 334.244 322.315 Q 334.244 330.371 328.308 335.777 L 328.308 335.777 L 328.308 335.777 Q 322.372 341.183 312.62 341.183 L 312.62 341.183 L 312.62 341.183 Q 302.868 341.183 296.932 335.777 L 296.932 335.777 L 296.932 335.777 Q 290.996 330.371 290.996 322.315 L 290.996 322.315 L 290.996 322.315 Z  M 294.388 355.599 L 330.64 355.599 L 330.64 473.895 L 294.388 473.895 L 294.388 355.599 L 294.388 355.599 Z  M 429.432 354.115 L 429.432 354.115 Q 444.06 354.115 455.614 361.429 L 455.614 361.429 L 455.614 361.429 Q 467.168 368.743 473.846 382.417 L 473.846 382.417 L 473.846 382.417 Q 480.524 396.091 480.524 414.747 L 480.524 414.747 L 480.524 414.747 Q 480.524 433.191 473.846 446.971 L 473.846 446.971 L 473.846 446.971 Q 467.168 460.751 455.614 468.065 L 455.614 468.065 L 455.614 468.065 Q 444.06 475.379 429.432 475.379 L 429.432 475.379 L 429.432 475.379 Q 415.864 475.379 406.112 469.231 L 406.112 469.231 L 406.112 469.231 Q 396.36 463.083 391.908 452.483 L 391.908 452.483 L 391.908 530.287 L 355.656 530.287 L 355.656 355.599 L 391.908 355.599 L 391.908 377.011 L 391.908 377.011 Q 396.36 366.411 406.112 360.263 L 406.112 360.263 L 406.112 360.263 Q 415.864 354.115 429.432 354.115 L 429.432 354.115 L 429.432 354.115 Z  M 417.772 385.915 L 417.772 385.915 Q 406.324 385.915 399.01 393.653 L 399.01 393.653 L 399.01 393.653 Q 391.696 401.391 391.696 414.747 L 391.696 414.747 L 391.696 414.747 Q 391.696 427.891 399.01 435.735 L 399.01 435.735 L 399.01 435.735 Q 406.324 443.579 417.772 443.579 L 417.772 443.579 L 417.772 443.579 Q 429.432 443.579 436.534 435.947 L 436.534 435.947 L 436.534 435.947 Q 443.636 428.315 443.636 414.747 L 443.636 414.747 L 443.636 414.747 Q 443.636 401.179 436.534 393.547 L 436.534 393.547 L 436.534 393.547 Q 429.432 385.915 417.772 385.915 L 417.772 385.915 L 417.772 385.915 Z  M 178 484.495 L 486.884 484.495 L 486.884 495.095 L 178 495.095 L 178 484.495 Z " fill="rgb(70,70,70)"/><path d=" M 580.588 355.599 L 617.052 355.599 L 617.052 473.895 L 580.588 473.895 L 580.588 452.483 L 580.588 452.483 Q 575.5 462.871 565.43 469.019 L 565.43 469.019 L 565.43 469.019 Q 555.36 475.167 542.004 475.167 L 542.004 475.167 L 542.004 475.167 Q 521.652 475.167 509.674 461.599 L 509.674 461.599 L 509.674 461.599 Q 497.696 448.031 497.696 424.287 L 497.696 424.287 L 497.696 355.599 L 533.736 355.599 L 533.736 419.835 L 533.736 419.835 Q 533.736 431.919 539.99 438.597 L 539.99 438.597 L 539.99 438.597 Q 546.244 445.275 556.844 445.275 L 556.844 445.275 L 556.844 445.275 Q 567.868 445.275 574.228 438.279 L 574.228 438.279 L 574.228 438.279 Q 580.588 431.283 580.588 418.351 L 580.588 418.351 L 580.588 355.599 L 580.588 355.599 Z  M 715.844 354.115 L 715.844 354.115 Q 730.472 354.115 742.026 361.429 L 742.026 361.429 L 742.026 361.429 Q 753.58 368.743 760.258 382.417 L 760.258 382.417 L 760.258 382.417 Q 766.936 396.091 766.936 414.747 L 766.936 414.747 L 766.936 414.747 Q 766.936 433.191 760.258 446.971 L 760.258 446.971 L 760.258 446.971 Q 753.58 460.751 742.026 468.065 L 742.026 468.065 L 742.026 468.065 Q 730.472 475.379 715.844 475.379 L 715.844 475.379 L 715.844 475.379 Q 702.276 475.379 692.524 469.231 L 692.524 469.231 L 692.524 469.231 Q 682.772 463.083 678.32 452.483 L 678.32 452.483 L 678.32 530.287 L 642.068 530.287 L 642.068 355.599 L 678.32 355.599 L 678.32 377.011 L 678.32 377.011 Q 682.772 366.411 692.524 360.263 L 692.524 360.263 L 692.524 360.263 Q 702.276 354.115 715.844 354.115 L 715.844 354.115 L 715.844 354.115 Z  M 704.184 385.915 L 704.184 385.915 Q 692.736 385.915 685.422 393.653 L 685.422 393.653 L 685.422 393.653 Q 678.108 401.391 678.108 414.747 L 678.108 414.747 L 678.108 414.747 Q 678.108 427.891 685.422 435.735 L 685.422 435.735 L 685.422 435.735 Q 692.736 443.579 704.184 443.579 L 704.184 443.579 L 704.184 443.579 Q 715.844 443.579 722.946 435.947 L 722.946 435.947 L 722.946 435.947 Q 730.048 428.315 730.048 414.747 L 730.048 414.747 L 730.048 414.747 Q 730.048 401.179 722.946 393.547 L 722.946 393.547 L 722.946 393.547 Q 715.844 385.915 704.184 385.915 L 704.184 385.915 L 704.184 385.915 Z  M 486.884 484.495 L 773.296 484.495 L 773.296 495.095 L 486.884 495.095 L 486.884 484.495 Z " fill="rgb(31,50,196)"/></svg>